<?xml version="1.0" encoding="UTF-8" standalone="no"?>
<!DOCTYPE svg PUBLIC "-//W3C//DTD SVG 1.1//EN" "http://www.w3.org/Graphics/SVG/1.1/DTD/svg11.dtd">
<svg width="100%" height="100%" viewBox="0 0 512 512" version="1.1" xmlns="http://www.w3.org/2000/svg" xmlns:xlink="http://www.w3.org/1999/xlink" xml:space="preserve" xmlns:serif="http://www.serif.com/" style="fill-rule:evenodd;clip-rule:evenodd;stroke-linejoin:round;stroke-miterlimit:2;">
    <rect x="0" y="0" width="512" height="512" style="fill:rgb(240,218,184);"/>
    <g transform="matrix(1,0,0,1,-9.20747,-0.00850375)">
        <g transform="matrix(1.2616,0,0,1.2616,42.0241,19.6082)">
            <path d="M169.516,32.236L28.339,32.236C25.093,32.236 22.457,34.872 22.457,38.119L22.457,173.413C22.457,176.66 25.093,179.296 28.339,179.296L169.516,179.296" style="fill:rgb(165,197,93);"/>
            <path d="M169.516,29.066C171.266,29.066 172.687,30.486 172.687,32.236C172.687,33.986 171.266,35.407 169.516,35.407L28.339,35.407C26.842,35.407 25.627,36.622 25.627,38.119L25.627,173.413C25.627,174.91 26.842,176.125 28.339,176.125L169.516,176.125C171.266,176.125 172.687,177.546 172.687,179.296C172.687,181.046 171.266,182.466 169.516,182.466L28.339,182.466C23.343,182.466 19.286,178.41 19.286,173.413L19.286,38.119C19.286,33.122 23.343,29.066 28.339,29.066L169.516,29.066Z" style="fill:rgb(67,82,37);"/>
        </g>
        <g transform="matrix(-1.2616,-1.54501e-16,1.54501e-16,-1.2616,488.391,286.476)">
            <path d="M169.516,32.236L28.339,32.236C25.093,32.236 22.457,34.872 22.457,38.119L22.457,173.413C22.457,176.66 25.093,179.296 28.339,179.296L169.516,179.296" style="fill:rgb(211,164,101);"/>
            <path d="M169.516,29.066C171.266,29.066 172.687,30.486 172.687,32.236C172.687,33.986 171.266,35.407 169.516,35.407L28.339,35.407C26.842,35.407 25.627,36.622 25.627,38.119L25.627,173.413C25.627,174.91 26.842,176.125 28.339,176.125L169.516,176.125C171.266,176.125 172.687,177.546 172.687,179.296C172.687,181.046 171.266,182.466 169.516,182.466L28.339,182.466C23.343,182.466 19.286,178.41 19.286,173.413L19.286,38.119C19.286,33.122 23.343,29.066 28.339,29.066L169.516,29.066Z" style="fill:rgb(123,73,44);"/>
        </g>
        <g transform="matrix(1.2616,-2.9356e-17,2.9356e-17,1.2616,42.0241,225.541)">
            <path d="M169.516,38.436C169.516,35.014 166.739,32.236 163.317,32.236L28.656,32.236C25.235,32.236 22.457,35.014 22.457,38.436L22.457,173.096C22.457,176.518 25.235,179.296 28.656,179.296L163.317,179.296C166.739,179.296 169.516,176.518 169.516,173.096L169.516,38.436Z" style="fill:rgb(200,142,58);"/>
            <path d="M171.102,38.436L171.102,173.096C171.102,177.393 167.613,180.881 163.317,180.881L28.656,180.881C24.36,180.881 20.871,177.393 20.871,173.096L20.871,38.436C20.871,34.139 24.36,30.651 28.656,30.651L163.317,30.651C167.613,30.651 171.102,34.139 171.102,38.436ZM167.931,38.436C167.931,35.889 165.864,33.821 163.317,33.821L28.656,33.821C26.11,33.821 24.042,35.889 24.042,38.436L24.042,173.096C24.042,175.643 26.11,177.711 28.656,177.711L163.317,177.711C165.864,177.711 167.931,175.643 167.931,173.096L167.931,38.436Z" style="fill:rgb(200,142,58);"/>
        </g>
        <g transform="matrix(1.2616,-2.9356e-17,2.9356e-17,1.2616,246.198,225.541)">
            <path d="M169.516,38.436C169.516,35.014 166.739,32.236 163.317,32.236L28.656,32.236C25.235,32.236 22.457,35.014 22.457,38.436L22.457,173.096C22.457,176.518 25.235,179.296 28.656,179.296L163.317,179.296C166.739,179.296 169.516,176.518 169.516,173.096L169.516,38.436Z" style="fill:rgb(126,107,78);"/>
            <path d="M172.687,38.436L172.687,173.096C172.687,178.268 168.488,182.466 163.317,182.466L28.656,182.466C23.485,182.466 19.286,178.268 19.286,173.096L19.286,38.436C19.286,33.264 23.485,29.066 28.656,29.066L163.317,29.066C168.488,29.066 172.687,33.264 172.687,38.436ZM166.346,38.436C166.346,36.764 164.989,35.407 163.317,35.407L28.656,35.407C26.985,35.407 25.627,36.764 25.627,38.436L25.627,173.096C25.627,174.768 26.985,176.125 28.656,176.125L163.317,176.125C164.989,176.125 166.346,174.768 166.346,173.096L166.346,38.436Z" style="fill:rgb(65,54,46);"/>
        </g>
    </g>
</svg>
