<?xml version="1.0" encoding="UTF-8" standalone="no"?>
<!DOCTYPE svg PUBLIC "-//W3C//DTD SVG 1.1//EN" "http://www.w3.org/Graphics/SVG/1.1/DTD/svg11.dtd">
<svg width="100%" height="100%" viewBox="0 0 500 500" version="1.1" xmlns="http://www.w3.org/2000/svg" xmlns:xlink="http://www.w3.org/1999/xlink" xml:space="preserve" xmlns:serif="http://www.serif.com/" style="fill-rule:evenodd;clip-rule:evenodd;stroke-linejoin:round;stroke-miterlimit:2;">
    <g transform="matrix(1,0,0,1,0,10.8555)">
        <g transform="matrix(1,0,0,1,2.97248,526.015)">
            <g transform="matrix(2.04799,0,0,2.04799,-206.515,-746.265)">
                <g transform="matrix(65.1045,0,0,65.1045,333.841,233.82)">
                </g>
                <text x="150.832px" y="233.82px" style="font-family:'Onest-Bold', 'Onest';font-weight:700;font-size:65.104px;fill:rgb(74,104,35);">guess</text>
            </g>
            <g transform="matrix(0.594478,0,0,0.594478,-20.7665,-314.57)">
                <g transform="matrix(70.0895,0,0,70.0895,148.681,71.1265)">
                </g>
                <text x="78.241px" y="71.127px" style="font-family:'Onest-Bold', 'Onest';font-weight:700;font-size:70.09px;fill:rgb(74,104,35);">15</text>
            </g>
        </g>
        <g transform="matrix(0.670227,0,0,0.670227,-86.3945,6.08481)">
            <g transform="matrix(74.6016,0,0,74.6016,401.215,176.675)">
            </g>
            <text x="168.458px" y="176.675px" style="font-family:'Onest-Bold', 'Onest';font-weight:700;font-size:74.602px;">be<tspan x="257.159px 285.06px 329.746px 358.319px " y="176.675px 176.675px 176.675px 176.675px ">fore</tspan></text>
        </g>
        <g transform="matrix(0.670227,0,0,0.670227,-85.4945,272.43)">
            <g transform="matrix(74.6016,0,0,74.6016,239.478,176.675)">
                <path d="M0.27,0.007C0.211,0.007 0.167,-0.01 0.139,-0.043C0.11,-0.076 0.096,-0.122 0.096,-0.18L0.096,-0.402L0.017,-0.402L0.017,-0.527L0.096,-0.527L0.096,-0.669L0.236,-0.669L0.236,-0.527L0.396,-0.527L0.396,-0.402L0.236,-0.402L0.236,-0.209C0.236,-0.192 0.238,-0.177 0.243,-0.164C0.247,-0.151 0.254,-0.141 0.265,-0.135C0.275,-0.128 0.289,-0.124 0.307,-0.124C0.323,-0.124 0.337,-0.127 0.348,-0.132C0.359,-0.137 0.368,-0.142 0.375,-0.148L0.419,-0.04C0.405,-0.029 0.39,-0.02 0.373,-0.013C0.356,-0.006 0.338,-0.001 0.321,0.003C0.304,0.006 0.287,0.007 0.27,0.007Z" style="fill-rule:nonzero;"/>
            </g>
            <g transform="matrix(74.6016,0,0,74.6016,239.478,176.675)">
            </g>
            <g transform="matrix(74.6016,0,0,74.6016,343.175,176.675)">
            </g>
            <text x="168.458px" y="176.675px" style="font-family:'Onest-Bold', 'Onest';font-weight:700;font-size:74.602px;">af<tspan x="270.96px " y="176.675px ">e</tspan>r</text>
        </g>
    </g>
</svg>
